# xmcd
#
# Track frame offsets:
#   150
#   15980
#   29625
#   45949
#   59428
#   75419
#   92827
#   104607
#   119193
#   135688
#   150334
#   173967
#   187653
#   200408
#   211970
#   226438
#   242278
#
# Disc length: 3406 seconds
#
# Revision: 0
# Processed by: cddbd v1.5.1PL2 Copyright (c) Steve Scherf et al.
# Submitted via: uFREEDB 1.6.2
#
DISCID=d70d4c11
DTITLE=The Top Song 5 - The Top Song 5
DYEAR=1970
DGENRE=UnClassifiable
TTITLE0=Seasons in the sun
TTITLE1=When will I see you again
TTITLE2=Sun down
TTITLE3=Let me be there
TTITLE4=The way we were
TTITLE5=I won't last a day without you
TTITLE6=You're having my baby
TTITLE7=If you love me
TTITLE8=I honestly love you
TTITLE9=It sure took a long long time
TTITLE10=Band on the run
TTITLE11=Annie's song
TTITLE12=A love song
TTITLE13=I'll have to say I love you in a song
TTITLE14=You and me against the world
TTITLE15=Rock me gently
TTITLE16=Honey Honey
EXTD=
EXTT0=
EXTT1=
EXTT2=
EXTT3=
EXTT4=
EXTT5=
EXTT6=
EXTT7=
EXTT8=
EXTT9=
EXTT10=
EXTT11=
EXTT12=
EXTT13=
EXTT14=
EXTT15=
EXTT16=
PLAYORDER=
